<?xml version="1.0" encoding="UTF-8" standalone="no"?>
<!-- Generator: Adobe Illustrator 23.0.2, SVG Export Plug-In . SVG Version: 6.00 Build 0)  -->

<svg
   xmlns:dc="http://purl.org/dc/elements/1.1/"
   xmlns:cc="http://creativecommons.org/ns#"
   xmlns:rdf="http://www.w3.org/1999/02/22-rdf-syntax-ns#"
   xmlns:svg="http://www.w3.org/2000/svg"
   xmlns="http://www.w3.org/2000/svg"
   xmlns:sodipodi="http://sodipodi.sourceforge.net/DTD/sodipodi-0.dtd"
   xmlns:inkscape="http://www.inkscape.org/namespaces/inkscape"
   version="1.1"
   id="Слой_1"
   x="0px"
   y="0px"
   viewBox="0 0 367 170.8"
   style="enable-background:new 0 0 367 170.8;"
   xml:space="preserve"
   sodipodi:docname="TextonlyCodexLogo_closed_D.svg"
   inkscape:version="0.92.4 (5da689c313, 2019-01-14)"><metadata
   id="metadata4844"><rdf:RDF><cc:Work
       rdf:about=""><dc:format>image/svg+xml</dc:format><dc:type
         rdf:resource="http://purl.org/dc/dcmitype/StillImage" /><dc:title></dc:title></cc:Work></rdf:RDF></metadata><defs
   id="defs4842">
	
	
	
	
	
</defs><sodipodi:namedview
   pagecolor="#ffffff"
   bordercolor="#666666"
   borderopacity="1"
   objecttolerance="10"
   gridtolerance="10"
   guidetolerance="10"
   inkscape:pageopacity="0"
   inkscape:pageshadow="2"
   inkscape:window-width="2400"
   inkscape:window-height="1284"
   id="namedview4840"
   showgrid="false"
   inkscape:zoom="2.8521505"
   inkscape:cx="220"
   inkscape:cy="54"
   inkscape:window-x="2811"
   inkscape:window-y="-9"
   inkscape:window-maximized="1"
   inkscape:current-layer="Слой_1" />
<style
   type="text/css"
   id="style4791">
	.st0{fill:#FFFFFF;}
	.st1{display:none;}
	.st2{display:inline;}
</style>
<g
   id="g4795">
		<path
   inkscape:connector-curvature="0"
   id="path4793"
   d="M 125.7,77.9 H 111 l -3,-0.1 H 87 L 74.1,77.9 H 59.4 L 92,5.8 m 14,60 -14,-31 v 0 l -14,31 z" />
	</g><path
   inkscape:connector-curvature="0"
   id="path4797"
   d="m 91.2,168 c -4.5,-1.8 -8.3,-4.3 -11.5,-7.5 -3.2,-3.2 -5.6,-7 -7.4,-11.5 -1.8,-4.5 -2.7,-9.4 -2.7,-14.6 0,-5.2 0.9,-10.1 2.7,-14.6 1.8,-4.5 4.2,-8.3 7.4,-11.5 3.2,-3.2 7,-5.7 11.5,-7.5 4.5,-1.8 9.4,-2.7 14.7,-2.7 5.2,0 10,0.9 14.4,2.7 4.4,1.8 8.3,4.2 11.5,7.4 3.2,3.2 5.7,7 7.5,11.5 1.8,4.5 2.7,9.5 2.7,14.8 0,5.3 -0.9,10.3 -2.7,14.8 -1.8,4.5 -4.3,8.4 -7.5,11.5 -3.2,3.1 -7,5.6 -11.5,7.4 -4.5,1.8 -9.3,2.7 -14.4,2.7 -5.3,-0.2 -10.2,-1.1 -14.7,-2.9 z m 23.3,-12.1 c 2.7,-1.2 4.9,-2.8 6.8,-4.8 1.9,-2 3.4,-4.5 4.5,-7.4 1.1,-2.9 1.6,-6 1.6,-9.3 0,-4.4 -0.9,-8.4 -2.8,-11.9 -1.9,-3.5 -4.4,-6.3 -7.7,-8.3 -3.3,-2 -6.9,-3 -11,-3 -4.2,0 -7.9,1 -11.2,3.1 -3.3,2.1 -5.9,4.9 -7.7,8.4 -1.8,3.5 -2.7,7.4 -2.7,11.7 0,4.3 0.9,8.2 2.7,11.7 1.8,3.5 4.4,6.3 7.7,8.4 3.3,2.1 7.1,3.1 11.2,3.1 3.1,0 5.9,-0.5 8.6,-1.7 z" /><path
   inkscape:connector-curvature="0"
   id="path4799"
   d="m 256.2,76 c -4.5,-1.8 -8.3,-4.3 -11.5,-7.5 -3.2,-3.2 -5.6,-7 -7.4,-11.5 -1.8,-4.5 -2.7,-9.4 -2.7,-14.6 0,-5.2 0.9,-10.1 2.7,-14.6 1.8,-4.5 4.2,-8.3 7.4,-11.5 3.2,-3.2 7,-5.7 11.5,-7.5 4.5,-1.8 9.4,-2.7 14.7,-2.7 5.2,0 10,0.9 14.4,2.7 4.4,1.8 8.3,4.2 11.5,7.4 3.2,3.2 5.7,7 7.5,11.5 1.8,4.5 2.7,9.5 2.7,14.8 0,5.3 -0.9,10.3 -2.7,14.8 -1.8,4.5 -4.3,8.4 -7.5,11.5 -3.2,3.1 -7,5.6 -11.5,7.4 -4.5,1.8 -9.3,2.7 -14.4,2.7 -5.3,-0.2 -10.2,-1.1 -14.7,-2.9 z m 23.3,-12.1 c 2.7,-1.2 4.9,-2.8 6.8,-4.8 1.9,-2 3.4,-4.5 4.5,-7.4 1.1,-2.9 1.6,-6 1.6,-9.3 0,-4.4 -0.9,-8.4 -2.8,-11.9 -1.9,-3.5 -4.4,-6.3 -7.7,-8.3 -3.3,-2 -6.9,-3 -11,-3 -4.2,0 -7.9,1 -11.2,3.1 -3.3,2.1 -5.9,4.9 -7.7,8.4 -1.8,3.5 -2.7,7.4 -2.7,11.7 0,4.3 0.9,8.2 2.7,11.7 1.8,3.5 4.4,6.3 7.7,8.4 3.3,2.1 7.1,3.1 11.2,3.1 3.1,0 5.9,-0.5 8.6,-1.7 z" /><path
   inkscape:connector-curvature="0"
   id="path4801"
   d="M 318.1,145 H 318 l -16.1,24.9 h -16.4 l 23.2,-35.6 -22.6,-35.4 h 16.1 l 15.6,24.5 h 0.2 l 15.6,-24.5 h 16.1 l -22.5,35.4 23.2,35.7 h -16.5 z" /><g
   id="g4805">
		<path
   inkscape:connector-curvature="0"
   id="path4803"
   d="m 153.3,50.9 c 3.1,-1 5.7,-2.5 7.8,-4.3 2.1,-1.9 3.8,-4.3 5,-7.2 1.2,-2.9 1.8,-6.2 1.8,-9.9 0,-3.5 -0.5,-6.6 -1.5,-9.5 -1,-2.8 -2.5,-5.3 -4.4,-7.5 -2,-2.1 -4.6,-3.8 -7.8,-5 C 151,6.3 147.3,5.7 143.1,5.7 H 132 v 12.5 h 8.5 c 4,0 7.2,1 9.4,2.9 2.2,2 3.3,4.6 3.3,8 0,3.4 -1.2,6 -3.5,8 -2.3,2 -5.6,3 -9.9,3 h -7.7 l 5.9,12.4 h 0.1 L 151,76.8 h 16.7 L 153.2,51 v -0.1 z" />
	</g>
<g
   id="g4811">
	<path
   d="M219.3,45.6c-2.5-3.1-6-5.2-10.5-6.4V39c2.5-0.9,4.5-2.3,6.2-4c1.6-1.7,2.8-3.6,3.5-5.6s1-4.1,1-6.3c0-5.6-2-9.9-5.9-12.9   s-9.7-4.4-17.3-4.4H185v12.5h8.5c2.7,0,4.9,0.3,6.6,1s3,1.7,3.8,2.9s1.2,2.7,1.2,4.3c0,1.9-0.5,3.5-1.5,4.8s-2.3,2.2-3.9,2.8   s-3.3,0.9-5.3,0.9H185v11.3h10.8c4.1,0,7.2,0.8,9.3,2.5c2.1,1.6,3.2,3.9,3.2,6.8c0,2-0.5,3.7-1.6,5s-2.5,2.4-4.4,3   c-1.9,0.7-4.1,1-6.6,1H185V77h14.9c3.8,0,7.2-0.5,10.1-1.5c2.9-1,5.4-2.3,7.2-4.1c1.9-1.8,3.3-3.8,4.2-6.2c1-2.4,1.4-5,1.4-7.9   C223,52.6,221.7,48.7,219.3,45.6z"
   id="path4809" />
</g>
<g
   id="g4815">
	<polygon
   points="321.1,30.8 352.4,77.9 366.8,77.9 366.8,6.9 352.7,6.9 352.7,54.9 352.5,54.9 321,7  "
   id="polygon4813" />
</g>
<path
   d="m 14.6,120.1 c 1.7,-4.4 4.2,-8.2 7.4,-11.3 3.2,-3.1 7.1,-5.5 11.7,-7.3 4.6,-1.8 9.7,-2.6 15.2,-2.6 h 9.2 v 12.6 h -9.5 c -4.2,0 -8,1 -11.3,3 -3.4,2 -6,4.7 -7.8,8.2 -1.9,3.5 -2.8,7.5 -2.8,11.9 0,3.2 0.5,6.2 1.6,9 1.1,2.8 2.6,5.2 4.6,7.3 2,2 4.4,3.6 7.3,4.8 2.9,1.2 6,1.8 9.4,1.8 h 8.6 V 170 h -9.5 c -5.6,0 -10.7,-0.9 -15.3,-2.6 -4.6,-1.7 -8.4,-4.1 -11.5,-7.3 -3.1,-3.1 -5.5,-6.8 -7.2,-11.2 -1.7,-4.4 -2.5,-9.1 -2.5,-14.4 0,-5.3 0.7,-10 2.4,-14.4 z"
   id="path4817"
   inkscape:connector-curvature="0" />
<path
   d="M 166 98.900391 L 166 98.908203 L 154 98.923828 L 154.0332 170.00977 L 166 169.99414 L 166 170 L 177.5 170 C 183.1 170 188.20078 169.10039 192.80078 167.40039 C 197.40078 165.70039 201.20078 163.29961 204.30078 160.09961 C 207.40078 156.99961 209.8 153.30039 211.5 148.90039 C 213.2 144.50039 214 139.8 214 134.5 C 214 129.2 213.2 124.49961 211.5 120.09961 C 209.8 115.69961 207.29961 111.90078 204.09961 108.80078 C 200.89961 105.70078 197.00039 103.3 192.40039 101.5 C 187.80039 99.7 182.69922 98.900391 177.19922 98.900391 L 166 98.900391 z M 166.60547 111.5 L 177.5 111.5 C 181.7 111.5 185.50078 112.5 188.80078 114.5 C 192.20078 116.5 194.79961 119.19922 196.59961 122.69922 C 198.49961 126.19922 199.40039 130.19961 199.40039 134.59961 C 199.40039 137.79961 198.90078 140.79961 197.80078 143.59961 C 196.70078 146.39961 195.19922 148.80039 193.19922 150.90039 C 191.19922 152.90039 188.80039 154.49922 185.90039 155.69922 C 183.00039 156.89922 179.9 157.5 176.5 157.5 L 166.58398 157.5 L 166.62305 148.23047 L 166.60547 111.5 z "
   id="path4819" />
<g
   id="g4823">
	<path
   d="M2.6,28.1c1.7-4.4,4.2-8.2,7.4-11.3s7.1-5.6,11.7-7.3c4.6-1.8,9.7-2.6,15.2-2.7h9.2v12.6h-9.5c-4.2,0-8,1-11.3,3   c-3.4,2-6,4.7-7.8,8.2c-1.9,3.5-2.8,7.5-2.8,11.9c0,3.2,0.6,6.2,1.6,9c1.1,2.8,2.6,5.2,4.6,7.2s4.4,3.6,7.3,4.8   c2.9,1.2,6,1.8,9.4,1.7h8.6v12.5h-9.5c-5.6,0-10.7-0.8-15.3-2.6C16.8,73.4,13,71,9.8,67.9c-3.1-3.1-5.5-6.8-7.2-11.2   c-1.7-4.4-2.5-9.1-2.5-14.4S0.9,32.5,2.6,28.1z"
   id="path4821" />
</g>
<polygon
   points="219.7,98.9 219.7,111.4 233.6,111.5 265.1,111.5 265.1,98.9 "
   id="polygon4825"
   transform="translate(8)" />
<g
   id="g4831"
   transform="translate(8)">
	<polyline
   points="234,140.9 264.9,140.9 264.9,128.5 233.6,128.5 219.7,128.6 219.7,140.8  "
   id="polyline4827" />
	<polygon
   points="265,157.3 234,157.3 219.7,157.4 219.7,169.9 265,169.9 "
   id="polygon4829" />
</g>
<g
   class="st1"
   id="g4837">
	<path
   class="st2"
   d="M264,64.5c-1.4-0.5-2.8-1.1-4.1-2c-3.3-2.1-5.9-4.9-7.7-8.4s-2.7-7.4-2.7-11.7c0-4.3,0.9-8.2,2.7-11.7   s4.4-6.3,7.7-8.4c1.3-0.8,2.7-1.5,4.1-2V6.6c-2.7,0.5-5.2,1.2-7.6,2.1c-4.5,1.8-8.4,4.3-11.5,7.5s-5.6,7-7.4,11.5   c-1.8,4.5-2.7,9.3-2.7,14.6s0.9,10.1,2.7,14.6s4.2,8.4,7.4,11.5c3.1,3.2,7,5.7,11.5,7.5c2.4,1,5,1.7,7.7,2.1V64.5H264z"
   id="path4833" />
	<path
   class="st2"
   d="M304.5,27.6c-1.8-4.5-4.3-8.4-7.5-11.5s-7-5.6-11.5-7.4c-2.4-1-4.9-1.6-7.5-2.1v13.6c1.4,0.5,2.8,1.1,4.1,1.9   c3.3,2,5.8,4.8,7.7,8.3c1.9,3.5,2.8,7.5,2.8,11.9c0,3.3-0.5,6.4-1.6,9.3s-2.6,5.4-4.5,7.4s-4.2,3.7-6.8,4.8   c-0.5,0.2-1.1,0.4-1.6,0.6V78c2.6-0.4,5.1-1.1,7.5-2.1c4.4-1.8,8.3-4.2,11.5-7.4c3.2-3.1,5.7-7,7.5-11.5s2.7-9.5,2.7-14.8   S306.3,32.1,304.5,27.6z"
   id="path4835" />
</g>
</svg>